<?xml version="1.0" encoding="UTF-8" standalone="no"?>
<svg
   version="1.0"
   viewBox="0 0 424.000000 424.000000"
   id="svg85"
   sodipodi:docname="avatar.svg"
   inkscape:version="1.1.1 (c3084ef, 2021-09-22)"
   xmlns:inkscape="http://www.inkscape.org/namespaces/inkscape"
   xmlns:sodipodi="http://sodipodi.sourceforge.net/DTD/sodipodi-0.dtd"
   xmlns="http://www.w3.org/2000/svg"
   xmlns:svg="http://www.w3.org/2000/svg">
  <defs
     id="defs89" />
  <sodipodi:namedview
     id="namedview87"
     pagecolor="#ffffff"
     bordercolor="#666666"
     borderopacity="1.0"
     inkscape:pageshadow="2"
     inkscape:pageopacity="0.0"
     inkscape:pagecheckerboard="0"
     showgrid="false"
     inkscape:zoom="1.6957547"
     inkscape:cx="212"
     inkscape:cy="211.70515"
     inkscape:window-width="2560"
     inkscape:window-height="1572"
     inkscape:window-x="0"
     inkscape:window-y="0"
     inkscape:window-maximized="1"
     inkscape:current-layer="svg85" />
  <style
     id="style9">
    @media (prefers-color-scheme: dark) {
      svg { fill: white; }
    }
  </style>
  <g
     transform="matrix(0.18733284,0,0,-0.1719353,-183.43377,597.11085)"
     id="g83">
    <path
       d="m 2725,3460 c -8,-13 3,-30 21,-30 18,0 18,14 0,29 -10,8 -16,9 -21,1 z"
       id="path11" />
    <path
       d="m 2780,3450 c 0,-11 6,-20 14,-20 8,0 21,-3 30,-6 11,-4 16,0 16,14 0,12 -9,22 -22,26 -35,9 -38,8 -38,-14 z"
       id="path13" />
    <path
       d="m 2850,3410 c 0,-15 5,-20 18,-18 9,2 17,10 17,18 0,8 -8,16 -17,18 -13,2 -18,-3 -18,-18 z"
       id="path15" />
    <path
       d="m 2236,3364 c -9,-24 -7,-28 9,-14 17,14 20,30 6,30 -5,0 -12,-7 -15,-16 z"
       id="path17" />
    <path
       d="m 2783,3355 c -3,-9 -3,-18 0,-21 9,-9 27,6 27,22 0,19 -19,18 -27,-1 z"
       id="path19" />
    <path
       d="m 2544,3318 c -5,-8 -17,-18 -27,-21 -17,-6 -15,-10 12,-33 41,-34 63,-27 51,17 -12,42 -25,55 -36,37 z"
       id="path21" />
    <path
       d="m 2060,3266 c 0,-8 5,-18 10,-21 6,-3 10,3 10,14 0,12 -4,21 -10,21 -5,0 -10,-6 -10,-14 z"
       id="path23" />
    <path
       d="m 2325,3169 c -20,-18 -42,-44 -50,-58 -16,-30 -68,-86 -107,-117 -14,-11 -49,-48 -76,-83 -62,-77 -73,-127 -43,-194 11,-25 26,-67 32,-93 18,-74 35,-108 77,-150 21,-22 45,-51 55,-66 9,-15 30,-31 45,-34 15,-4 32,-11 38,-16 13,-9 171,-57 192,-58 7,0 12,13 12,31 0,31 1,31 38,25 20,-3 50,-6 65,-6 17,0 26,-4 22,-11 -4,-5 -19,-8 -33,-5 -33,7 -65,-15 -56,-38 4,-11 18,-16 44,-16 20,0 68,-11 106,-25 52,-18 78,-35 106,-67 49,-56 87,-131 95,-185 3,-24 8,-43 12,-43 3,0 15,14 26,30 11,16 23,30 28,30 12,0 8,-49 -7,-73 -7,-12 -16,-47 -19,-77 -3,-30 -8,-63 -12,-72 -4,-10 -3,-18 1,-18 14,0 34,50 35,84 0,28 1,27 14,-13 8,-26 10,-51 6,-60 -9,-17 -26,-101 -23,-113 1,-5 -3,-8 -8,-8 -6,0 -10,9 -10,20 0,11 -4,20 -10,20 -11,0 -10,-69 2,-76 4,-3 8,-1 8,5 0,6 6,8 14,5 10,-4 18,6 25,33 6,21 11,45 11,53 0,8 8,34 17,58 13,35 14,45 3,52 -9,5 -12,33 -11,95 1,71 -3,92 -18,111 -10,13 -22,41 -26,61 -8,46 -18,59 -62,79 -18,9 -41,29 -50,45 -10,16 -21,29 -25,29 -4,0 -8,4 -8,10 0,38 -115,102 -191,106 -26,1 -67,9 -93,18 -26,9 -62,16 -80,16 -19,0 -39,7 -46,15 -7,8 -27,15 -44,15 -40,1 -130,51 -134,76 -2,10 -9,24 -16,29 -24,20 -56,74 -47,79 5,3 1,32 -10,67 -33,106 -23,145 70,253 95,112 156,131 352,114 113,-11 130,-10 161,5 20,9 49,17 65,17 15,1 45,7 66,14 l 37,14 v -38 c 0,-21 6,-43 14,-50 8,-6 16,-28 18,-47 2,-20 9,-39 17,-41 11,-4 12,1 7,19 -19,70 -19,68 8,75 29,7 34,25 11,44 -11,10 -18,9 -30,-4 -22,-22 -25,-20 -25,12 0,17 3,23 8,14 12,-18 40,16 38,47 -1,18 -9,27 -28,32 -16,4 -28,4 -28,0 0,-5 -33,-16 -72,-25 -71,-17 -153,-20 -313,-14 l -80,3 -5,30 c -4,25 -10,31 -37,33 -23,2 -40,-5 -68,-29 z m -180,-529 c 3,-5 1,-10 -4,-10 -6,0 -11,5 -11,10 0,6 2,10 4,10 3,0 8,-4 11,-10 z"
       id="path25" />
    <path
       d="m 2596,3184 c -4,-9 -4,-19 -2,-21 8,-8 26,8 26,23 0,19 -16,18 -24,-2 z"
       id="path27" />
    <path
       d="m 1960,3164 c 0,-15 22,-44 30,-39 6,4 5,14 -3,25 -11,19 -27,27 -27,14 z"
       id="path29" />
    <path
       d="m 3012,3084 c 1,-9 9,-19 16,-22 9,-3 13,2 10,14 -1,9 -9,19 -16,22 -9,3 -13,-2 -10,-14 z"
       id="path31" />
    <path
       d="m 1970,3016 c 0,-8 5,-18 10,-21 6,-3 10,1 10,9 0,8 -4,18 -10,21 -5,3 -10,-1 -10,-9 z"
       id="path33" />
    <path
       d="m 2970,2998 c 0,-21 17,-41 29,-34 7,5 7,13 -2,26 -13,23 -27,26 -27,8 z"
       id="path35" />
    <path
       d="m 1880,2989 c 0,-11 34,-29 54,-29 28,0 17,16 -19,27 -19,6 -35,7 -35,2 z"
       id="path37" />
    <path
       d="m 2810,2990 c 0,-5 5,-10 10,-10 6,0 10,5 10,10 0,6 -4,10 -10,10 -5,0 -10,-4 -10,-10 z"
       id="path39" />
    <path
       d="m 2070,2945 c 0,-8 5,-15 10,-15 6,0 10,7 10,15 0,8 -4,15 -10,15 -5,0 -10,-7 -10,-15 z"
       id="path41" />
    <path
       d="m 2811,2948 c 0,-7 4,-22 9,-33 8,-18 9,-17 9,7 1,15 -3,30 -9,33 -5,3 -10,0 -9,-7 z"
       id="path43" />
    <path
       d="m 2345,2919 c -3,-8 1,-32 9,-54 l 15,-40 v 40 c 1,46 -14,80 -24,54 z"
       id="path45" />
    <path
       d="m 2588,2863 c -2,-5 11,-24 29,-43 37,-39 47,-20 12,24 -20,26 -35,33 -41,19 z"
       id="path47" />
    <path
       d="m 1955,2840 c -3,-5 1,-10 10,-10 9,0 13,5 10,10 -3,6 -8,10 -10,10 -2,0 -7,-4 -10,-10 z"
       id="path49" />
    <path
       d="m 2230,2770 c 0,-5 5,-10 10,-10 6,0 10,5 10,10 0,6 -4,10 -10,10 -5,0 -10,-4 -10,-10 z"
       id="path51" />
    <path
       d="m 2305,2770 c 44,-11 67,-11 60,0 -3,6 -25,9 -48,9 -40,-1 -40,-2 -12,-9 z"
       id="path53" />
    <path
       d="m 1710,2530 c 20,-13 40,-13 40,0 0,6 -12,10 -27,10 -22,0 -25,-2 -13,-10 z"
       id="path55" />
    <path
       d="m 2904,2459 c -3,-6 -1,-16 5,-22 8,-8 11,-5 11,11 0,24 -5,28 -16,11 z"
       id="path57" />
    <path
       d="m 1870,2430 c -8,-5 -12,-11 -9,-14 7,-8 49,5 49,15 0,12 -21,11 -40,-1 z"
       id="path59" />
    <path
       d="m 2603,2153 c -7,-2 -13,-11 -13,-20 0,-20 34,-12 38,10 3,17 -3,20 -25,10 z"
       id="path61" />
    <path
       d="m 2520,2070 c 0,-5 5,-10 10,-10 6,0 10,5 10,10 0,6 -4,10 -10,10 -5,0 -10,-4 -10,-10 z"
       id="path63" />
    <path
       d="m 2410,2035 c 0,-8 2,-15 4,-15 2,0 6,7 10,15 3,8 1,15 -4,15 -6,0 -10,-7 -10,-15 z"
       id="path65" />
    <path
       d="m 2895,1586 c -10,-15 -163,-69 -175,-61 -3,2 -53,-2 -111,-10 -73,-9 -128,-24 -184,-48 -44,-18 -101,-39 -126,-45 -55,-14 -144,-51 -137,-57 2,-2 26,2 53,10 96,29 118,11 30,-26 -34,-14 -51,-26 -43,-30 7,-4 28,-1 47,8 20,9 77,24 126,35 50,10 110,25 135,33 46,15 216,36 282,35 28,0 38,4 43,20 3,11 14,20 24,20 19,0 51,30 51,48 0,6 -8,12 -17,14 -12,3 -4,10 25,23 42,19 42,19 20,32 -29,16 -31,16 -43,-1 z m -25,-61 c 0,-8 -52,-26 -58,-20 -3,2 6,9 19,14 28,11 39,13 39,6 z"
       id="path67" />
    <path
       d="m 2962,1544 c -27,-18 -29,-34 -4,-34 21,0 62,27 62,41 0,14 -33,11 -58,-7 z"
       id="path69" />
    <path
       d="m 1410,1452 c -12,-39 -44,-62 -87,-62 -13,0 -31,-9 -40,-20 -12,-14 -30,-20 -60,-20 -36,0 -43,-3 -43,-19 0,-11 -4,-22 -9,-26 -23,-13 1,-110 30,-126 11,-5 28,-7 38,-4 22,7 35,-27 18,-44 -8,-8 -8,-14 0,-22 9,-9 18,-4 38,19 42,50 57,34 49,-49 -5,-49 -3,-69 5,-69 6,0 11,7 11,16 0,20 46,87 62,90 7,2 24,6 38,9 19,5 21,4 10,-4 -8,-5 -11,-13 -7,-17 8,-8 67,22 79,40 4,6 12,5 22,-3 13,-11 28,-7 90,23 41,20 79,36 85,36 5,0 22,5 38,12 15,6 34,10 41,9 6,-1 12,5 12,14 0,13 -11,19 -31,17 -4,-1 -5,7 -2,17 5,20 -1,23 -65,36 -18,4 -36,13 -39,21 -3,7 -30,30 -61,51 -52,34 -62,37 -124,37 -72,-1 -73,-1 -68,54 3,36 -18,25 -30,-16 z"
       id="path71" />
    <path
       d="m 2931,1431 c -8,-5 -9,-11 -3,-15 13,-8 72,4 72,15 0,11 -51,11 -69,0 z"
       id="path73" />
    <path
       d="m 2100,1361 c -8,-5 -49,-16 -90,-26 -86,-19 -126,-33 -97,-34 9,-1 17,-8 17,-16 0,-9 9,-15 21,-15 16,0 20,5 16,20 -4,16 0,20 17,20 32,0 118,27 141,44 15,12 16,15 5,15 -8,0 -22,-3 -30,-8 z"
       id="path75" />
    <path
       d="m 2108,1292 c -10,-2 -18,-8 -18,-13 0,-11 30,-12 48,0 11,7 11,9 0,13 -7,2 -21,3 -30,0 z"
       id="path77" />
    <path
       d="m 2800,1190 c 13,-23 20,-26 20,-6 0,8 -7,16 -15,20 -13,4 -14,2 -5,-14 z"
       id="path79" />
    <path
       d="m 2575,1180 c -3,-5 -1,-10 4,-10 6,0 11,5 11,10 0,6 -2,10 -4,10 -3,0 -8,-4 -11,-10 z"
       id="path81" />
  </g>
</svg>
